Coordinates
nRows=12
nColumns=24

# SIMM Motion File Header:
name Coordinates
datacolumns 24
datarows 12
otherdata 1
range 0.75267000000000006000 0.76366999999999996000

Units are S.I. units (second, meters, Newtons, ...)
Angles are in degrees.

endheader
time	pelvis_tx	pelvis_ty	pelvis_tz	pelvis_tilt	pelvis_list	pelvis_rotation	hip_flexion_r	hip_adduction_r	hip_rotation_r	knee_angle_r	ankle_angle_r	subtalar_angle_r	mtp_angle_r	hip_flexion_l	hip_adduction_l	hip_rotation_l	knee_angle_l	ankle_angle_l	subtalar_angle_l	mtp_angle_l	lumbar_extension	lumbar_bending	lumbar_rotation
      0.75267000000000006000	      1.48477379554112620000	      0.69142137503616385000	     -0.22245220054926840000	      6.10838038336867050000	      2.24356040409008540000	     -2.01398376362703630000	     -3.43777326603932430000	     -0.65191689189435043000	     -2.59519417855115540000	    -15.02505971393150500000	     10.13564901419003700000	     -0.00000000000011357750	      0.00000000000013474017	     14.27327116559194500000	     -2.16603225828390930000	     -6.53582953944255610000	    -48.87648577022672200000	     -5.30846367810909300000	      0.00000000000022640420	     -0.00000000000103541977	    -23.83832921559929100000	     -0.81422744292626714000	      5.58807068019601160000
      0.75367000000000006000	      1.48572808268854110000	      0.69139551472879823000	     -0.22239842322571776000	      6.11930720309844920000	      2.23637533276949800000	     -2.00829961652544810000	     -3.56945750808404410000	     -0.64744899329089700000	     -2.62076808876982170000	    -14.96708221023719800000	     10.17425647962337700000	     -0.00000000000011437783	      0.00000000000013609681	     14.40169444816213400000	     -2.16516902579291280000	     -6.44968033530111830000	    -48.65707719718228900000	     -5.23685329353878350000	      0.00000000000022681965	     -0.00000000000103747982	    -23.86854956666557800000	     -0.81653958318092301000	      5.61409836932080090000
      0.75467000000000006000	      1.48668233165058660000	      0.69136722753780566000	     -0.22234736694284965000	      6.13030543850828380000	      2.22892769524339540000	     -2.00253347976260930000	     -3.70123730632001990000	     -0.64276834370882063000	     -2.64615380720069740000	    -14.90930412750792100000	     10.21288195271894500000	     -0.00000000000011515120	      0.00000000000013744436	     14.52891398655653400000	     -2.16399309682337650000	     -6.36504310639162260000	    -48.43465982697717500000	     -5.16507199157979090000	      0.00000000000022723276	     -0.00000000000103953718	    -23.89894810663107100000	     -0.81778093156661258000	      5.63964585347444380000
      0.75567000000000006000	      1.48763657129752440000	      0.69133651370325067000	     -0.22229903244549154000	      6.14136883847207300000	      2.22122302369730250000	     -1.99669368327764380000	     -3.83311455254594070000	     -0.63787930932567394000	     -2.67132823926012760000	    -14.85171092157227900000	     10.25152540278067900000	     -0.00000000000011591940	      0.00000000000013880814	     14.65491934453896200000	     -2.16250705604380000000	     -6.28199168120830280000	    -48.20922394843937300000	     -5.09317915232968410000	      0.00000000000022764427	     -0.00000000000104159401	    -23.92951257440284600000	     -0.81795758735922097000	      5.66472787715950150000
      0.75667000000000006000	      1.48859083084322100000	      0.69130337360745342000	     -0.22225341889603500000	      6.15249109658461000000	      2.21326654073230020000	     -1.99078850619763650000	     -3.96509114788356780000	     -0.63278608068134334000	     -2.69626866079991560000	    -14.79428779327663400000	     10.29018626142254100000	     -0.00000000000011673193	      0.00000000000014028226	     14.77970000296275000000	     -2.16071406259705380000	     -6.20059897233552350000	    -47.98075917219870900000	     -5.02123595015690680000	      0.00000000000022805417	     -0.00000000000104364828	    -23.96023052432250500000	     -0.81707594200674127000	      5.68935941773965850000
      0.75767000000000007000	      1.48954513982579150000	      0.69126780778582941000	     -0.22221052384753626000	      6.16366586424862460000	      2.20506315687525460000	     -1.98482617683654380000	     -4.09716899627403390000	     -0.62749267384787200000	     -2.72095275031762100000	    -14.73701973133782900000	     10.32886341013243100000	     -0.00000000000011759094	      0.00000000000014184350	     14.90324535266104900000	     -2.15861784473575110000	     -6.12093689187611910000	    -47.74925445213335700000	     -4.94930517861339060000	      0.00000000000022846427	     -0.00000000000104570263	    -23.99108934289227700000	     -0.81514268812330992000	      5.71355569153981160000
      0.75866999999999996000	      1.49049952808829110000	      0.69122981693763286000	     -0.22217034321716378000	      6.17488676377474020000	      2.19661746821411400000	     -1.97881487271649650000	     -4.22934999796786750000	     -0.62200293172064003000	     -2.74535862113241750000	    -14.67989155524755400000	     10.36755516853553000000	     -0.00000000000011846633	      0.00000000000014340402	     15.02554468737615800000	     -2.15622269430802050000	     -6.04307626680561330000	    -47.51469810712136200000	     -4.87745107524985320000	      0.00000000000022887579	     -0.00000000000104775731	    -24.02207626547511100000	     -0.81216482850176042000	      5.73733215971770070000
      0.75966999999999996000	      1.49145402576027820000	      0.69118940193640788000	     -0.22213287126172612000	      6.18614740165866280000	      2.18793375518087000000	     -1.97276272081735990000	     -4.36163604306579880000	     -0.61632052631790102000	     -2.76946485373938560000	    -14.62288795862890800000	     10.40625928702802700000	     -0.00000000000011932761	      0.00000000000014496810	     15.14658719708132600000	     -2.15353345986486080000	     -5.96708675350084580000	    -47.27707784634783600000	     -4.80573914529460030000	      0.00000000000022928670	     -0.00000000000104981198	    -24.05317839278450600000	     -0.80814968513635521000	      5.76070453162436720000
      0.76066999999999996000	      1.49240866324211360000	      0.69114656383983131000	     -0.22209810055866772000	      6.19744138246365580000	      2.17901598435839850000	     -1.96667779843120740000	     -4.49402900553221410000	     -0.61044896308991148000	     -2.79325052306051850000	    -14.56599355250930500000	     10.44497294198054300000	     -0.00000000000012021408	      0.00000000000014659974	     15.26636196240975000000	     -2.15055553618093100000	     -5.89303674979774520000	    -47.03638080529557900000	     -4.73423598189161420000	      0.00000000000022969874	     -0.00000000000105186786	    -24.08438270686226800000	     -0.80310490793021583000	      5.78368876078496810000
      0.76166999999999996000	      1.49336347119115680000	      0.69110130389911351000	     -0.22206602199059602000	      6.20876232307722640000	      2.16986781215663930000	     -1.96056813437769730000	     -4.62653073752538190000	     -0.60439158641448010000	     -2.81669522121638090000	    -14.50919290830236000000	     10.48369273172980200000	     -0.00000000000012110777	      0.00000000000014824969	     15.38485794976001800000	     -2.14729485155841050000	     -5.82099330552357230000	    -46.79259358824289400000	     -4.66300908424974910000	      0.00000000000023011336	     -0.00000000000105392558	    -24.11567608674118900000	     -0.79703848322640025000	      5.80630103636509260000
      0.76266999999999996000	      1.49431848050837710000	      0.69105362356829370000	     -0.22203662473073521000	      6.22010386700912310000	      2.16049258891170040000	     -1.95444171030069790000	     -4.75914306368167140000	     -0.59815158557173675000	     -2.83977908129871310000	    -14.45247060117105200000	     10.52241467573879100000	     -0.00000000000012200489	      0.00000000000014988015	     15.50206400653763700000	     -2.14375785462198420000	     -5.75102203277256500000	    -46.54570231181612900000	     -4.59212667544352900000	      0.00000000000023052994	     -0.00000000000105598152	    -24.14704532402199200000	     -0.78995874240430131000	      5.82855777386436720000
      0.76366999999999996000	      1.49527372232506580000	      0.69100352451358715000	     -0.22200989622864892000	      6.23145969868837120000	      2.15089336299747910000	     -1.94830646196995440000	     -4.89186777538040560000	     -0.59173200073939070000	     -2.86248280147837870000	    -14.39581125345980100000	     10.56113421414241100000	     -0.00000000000012288997	      0.00000000000015148538	     15.61796885640553100000	     -2.13995150111028830000	     -5.68318701617827320000	    -46.29569264854873000000	     -4.52165752020762390000	      0.00000000000023094719	     -0.00000000000105803939	    -24.17847713844283700000	     -0.78187437047493358000	      5.85047560580411030000
